<mxfile host="app.diagrams.net" modified="2022-11-16T15:20:41.320Z" agent="5.0 (Macintosh; Intel Mac OS X 10_15_7) AppleWebKit/537.36 (KHTML, like Gecko) Chrome/107.0.0.0 Safari/537.36" etag="xBfAC8b3ytVR0lqOuqRK" version="20.5.3" type="github">
  <diagram id="jk84KoCiqGRbvonOO5nR" name="Page-1">
    <mxGraphModel dx="590" dy="459" grid="0" gridSize="10" guides="1" tooltips="1" connect="1" arrows="1" fold="1" page="1" pageScale="1" pageWidth="600" pageHeight="170" background="#EFF1F3" math="0" shadow="0">
      <root>
        <mxCell id="0" />
        <mxCell id="1" parent="0" />
        <mxCell id="Q7hivj1zsrkh-KHHkkOi-34" value="" style="shape=image;verticalLabelPosition=bottom;labelBackgroundColor=default;verticalAlign=top;aspect=fixed;imageAspect=0;image=data:image/svg+xml,PHN2ZyB4bWxuczp4bGluaz0iaHR0cDovL3d3dy53My5vcmcvMTk5OS94bGluayIgeG1sbnM9Imh0dHA6Ly93d3cudzMub3JnLzIwMDAvc3ZnIiBoZWlnaHQ9IjIwMCIgd2lkdGg9IjIwMC4zOTA2MjUiIHZlcnNpb249IjEuMSIgdmlld0JveD0iMCAwIDEwMjYgMTAyNCIgY2xhc3M9Imljb24iPjxwYXRoIGZpbGw9IiM0QTkxOUIiIGQ9Ik03ODIuMjcyIDM0MS43NmEyNzIuMTEyIDI3Mi4xMTIgMCAwIDAtNTQwLjUyOCAwIDIyNS4xMiAyMjUuMTIgMCAwIDAtMTUwLjgxNiAzNzMuOTY4IDI0IDI0IDAgMCAwIDM1Ljg3Mi0zMS44ODggMTc3LjA3MiAxNzcuMDcyIDAgMCAxIDEzMy4yOTYtMjk0LjY4OGgwLjEyOGwzLjIgMC4xNmEyNCAyNCAwIDAgMCAyNC41Ni0yMy4xODQgMjI0LjA5NiAyMjQuMDk2IDAgMCAxIDQ0OCAwIDI0IDI0IDAgMCAwIDI0LjU2IDIzLjE4NGw0LjI0LTAuMjI0YTE3Ny4xMiAxNzcuMTIgMCAwIDEgMTMyLjQzMiAyOTQuNzUyIDI0IDI0IDAgMCAwIDM1Ljg3MiAzMS44ODggMjI1LjEyIDIyNS4xMiAwIDAgMC0xNTAuODE2LTM3My45Njh6Ii8+PHBhdGggZmlsbD0iIzRBOTE5QiIgZD0iTTUxMC41NzYgNzM1Ljg4OGEyNCAyNCAwIDAgMCAyNC0yNHYtMjc0LjcybDg2LjQgODYuNGEyNCAyNCAwIDAgMCAzNC4wNDgtMzMuODcybC0xMjYuNjg4LTEyNi42ODhhMjQgMjQgMCAwIDAtMzMuOTM2IDBsLTEyOC4xNiAxMjguMTZhMjQgMjQgMCAwIDAgMzMuOTM2IDMzLjkzNmw4Ni40LTg2LjR2MjczLjE4NGEyNCAyNCAwIDAgMCAyNCAyNHoiLz48cGF0aCBmaWxsPSIjNEE5MTlCIiBkPSJNNzQ3LjgyNCA3MzUuNzI4YTI0IDI0IDAgMCAwLTMyLjQxNiAxMC4wMzIgMjQxLjYgMjQxLjYgMCAwIDEtNDI3LjQ3MiAwIDI0IDI0IDAgMCAwLTQyLjQ2NCAyMi40IDI4OS42IDI4OS42IDAgMCAwIDUxMi4zODQgMCAyNCAyNCAwIDAgMC0xMC4wMzItMzIuNDMyeiIvPjwvc3ZnPg==;" parent="1" vertex="1">
          <mxGeometry x="450.5" y="201" width="81" height="81" as="geometry" />
        </mxCell>
        <mxCell id="Q7hivj1zsrkh-KHHkkOi-35" value="&lt;font color=&quot;#4a919b&quot; style=&quot;font-size: 22px;&quot;&gt;OSS&lt;/font&gt;" style="text;html=1;strokeColor=none;fillColor=none;align=center;verticalAlign=middle;whiteSpace=wrap;rounded=0;" parent="1" vertex="1">
          <mxGeometry x="461" y="278.05" width="60" height="30" as="geometry" />
        </mxCell>
        <mxCell id="Q7hivj1zsrkh-KHHkkOi-37" value="" style="shape=flexArrow;endArrow=classic;html=1;rounded=0;fontSize=22;fontColor=#4A919B;strokeColor=none;fillColor=#4A919B;startArrow=block;" parent="1" edge="1">
          <mxGeometry width="50" height="50" relative="1" as="geometry">
            <mxPoint x="266.8799999999999" y="250.05000000000007" as="sourcePoint" />
            <mxPoint x="332.88" y="250.54999999999984" as="targetPoint" />
          </mxGeometry>
        </mxCell>
        <mxCell id="Q7hivj1zsrkh-KHHkkOi-38" value="&lt;font style=&quot;font-size: 15px;&quot; color=&quot;#4a919b&quot;&gt;直接访问源站&lt;/font&gt;" style="text;html=1;strokeColor=none;fillColor=none;align=center;verticalAlign=middle;whiteSpace=wrap;rounded=0;" parent="1" vertex="1">
          <mxGeometry x="252.19" y="208" width="95.12" height="30" as="geometry" />
        </mxCell>
        <mxCell id="Q7hivj1zsrkh-KHHkkOi-39" value="" style="shape=image;verticalLabelPosition=bottom;verticalAlign=top;imageAspect=0;aspect=fixed;image=data:image/svg+xml,PHN2ZyB4bWxuczp4bGluaz0iaHR0cDovL3d3dy53My5vcmcvMTk5OS94bGluayIgeG1sbnM9Imh0dHA6Ly93d3cudzMub3JnLzIwMDAvc3ZnIiBoZWlnaHQ9IjIwMCIgd2lkdGg9IjIwMCIgdmVyc2lvbj0iMS4xIiB2aWV3Qm94PSIwIDAgMTAyNCAxMDI0IiBjbGFzcz0iaWNvbiI+PGRlZnM+PHN0eWxlIHR5cGU9InRleHQvY3NzIj5AZm9udC1mYWNlIHsgZm9udC1mYW1pbHk6IGZlZWRiYWNrLWljb25mb250OyBzcmM6IHVybCgiLy9hdC5hbGljZG4uY29tL3QvZm9udF8xMDMxMTU4X3U2OXc4eWh4ZHUud29mZjI/dD0xNjMwMDMzNzU5OTQ0IikgZm9ybWF0KCJ3b2ZmMiIpLCB1cmwoIi8vYXQuYWxpY2RuLmNvbS90L2ZvbnRfMTAzMTE1OF91Njl3OHloeGR1LndvZmY/dD0xNjMwMDMzNzU5OTQ0IikgZm9ybWF0KCJ3b2ZmIiksIHVybCgiLy9hdC5hbGljZG4uY29tL3QvZm9udF8xMDMxMTU4X3U2OXc4eWh4ZHUudHRmP3Q9MTYzMDAzMzc1OTk0NCIpIGZvcm1hdCgidHJ1ZXR5cGUiKTsgfSYjeGE7PC9zdHlsZT48L2RlZnM+PHBhdGggZmlsbD0iIzRBOTE5QiIgZD0iTTg0Mi4zOTQ1OTUgNzk5LjczMzIzNyA2NDAuOTczMDc2IDc5OS43MzMyMzcgNjQwLjk3MzA3NiA5MTQuODI1NTA4bDU3LjU0OTAwNSAwYzE1LjkwMzg1MyAwIDI4Ljc3NDUwMyAxMi44NjkwOTkgMjguNzc0NTAzIDI4Ljc3MzMyNCAwIDE1LjkwMzIwMi0xMi44NzA2NDkgMjguNzcyMy0yOC43NzQ1MDMgMjguNzcyM0wzNTMuMjI4MDUgOTcyLjM3MTEzMmMtMTUuOTA0ODc3IDAtMjguNzc0NTAzLTEyLjg2OTA5OS0yOC43NzQ1MDMtMjguNzcyMyAwLTE1LjkwNDIyNSAxMi44Njk2MjYtMjguNzczMzI0IDI4Ljc3NDUwMy0yOC43NzMzMjRsNTcuNTQ5MDA1IDBMNDEwLjc3NzA1NSA3OTkuNzMzMjM3IDE4MC41ODEwMzQgNzk5LjczMzIzN2MtNjMuNTYyMTk5IDAtMTE1LjA5ODAxMS01MS41MzM3LTExNS4wOTgwMTEtMTE1LjA5MzI5NUw2NS40ODMwMjMgMTY2LjcyMDExNmMwLTYzLjU1OTU5NSA1MS41MzU4MTItMTE1LjA5MzI5NSAxMTUuMDk4MDExLTExNS4wOTMyOTVsNjYxLjgxMjUzNyAwYzYzLjU2MTE3NiAwIDExNS4wOTgwMTEgNTEuNTMzNyAxMTUuMDk4MDExIDExNS4wOTMyOTVsMCA1MTcuOTE5ODI2Qzk1Ny40OTE1ODIgNzQ4LjE5ODUxMyA5MDUuOTU1NzcgNzk5LjczMzIzNyA4NDIuMzk0NTk1IDc5OS43MzMyMzd6TTU4My40MjQwNzEgOTE0LjgyNTUwOCA1ODMuNDI0MDcxIDc5OS43MzMyMzcgNDY4LjMyNjA2IDc5OS43MzMyMzcgNDY4LjMyNjA2IDkxNC44MjU1MDggNTgzLjQyNDA3MSA5MTQuODI1NTA4ek04OTkuOTQyNTc3IDE2Ni43MjAxMTZjMC0zMS43Nzk3OTctMjUuNzY3OTA2LTU3LjU0NjY0Ny01Ny41NDc5ODItNTcuNTQ2NjQ3TDE4MC41ODEwMzQgMTA5LjE3MzQ2OGMtMzEuNzgxMDk5IDAtNTcuNTQ5MDA1IDI1Ljc2Njg1LTU3LjU0OTAwNSA1Ny41NDY2NDdsMCA0MDIuODI2NTMyTDg5OS45NDI1NzcgNTY5LjU0NjY0NyA4OTkuOTQyNTc3IDE2Ni43MjAxMTZ6TTg5OS45NDI1NzcgNjI3LjA5MzI5NSAxMjMuMDMzMDUyIDYyNy4wOTMyOTVsMCA1Ny41NDY2NDdjMCAzMS43Nzk3OTcgMjUuNzY3OTA2IDU3LjU0NTYyNCA1Ny41NDkwMDUgNTcuNTQ1NjI0bDY2MS44MTI1MzcgMGMzMS43ODEwOTkgMCA1Ny41NDc5ODItMjUuNzY2ODUgNTcuNTQ3OTgyLTU3LjU0NTYyNEw4OTkuOTQyNTc3IDYyNy4wOTMyOTV6Ii8+PC9zdmc+;dashed=1;strokeColor=#6DB5A8;strokeWidth=3;fontColor=#4A919B;fillColor=none;" parent="1" vertex="1">
          <mxGeometry x="68" y="208" width="84" height="84" as="geometry" />
        </mxCell>
        <mxCell id="_8Z2mnEpQPP2mV-QgCJI-1" value="" style="shape=image;verticalLabelPosition=bottom;labelBackgroundColor=default;verticalAlign=top;aspect=fixed;imageAspect=0;image=data:image/svg+xml,PHN2ZyB4bWxuczp4bGluaz0iaHR0cDovL3d3dy53My5vcmcvMTk5OS94bGluayIgeG1sbnM9Imh0dHA6Ly93d3cudzMub3JnLzIwMDAvc3ZnIiBoZWlnaHQ9IjIwMCIgd2lkdGg9IjIwMCIgdmVyc2lvbj0iMS4xIiB2aWV3Qm94PSIwIDAgMTAyNCAxMDI0IiBjbGFzcz0iaWNvbiI+PHBhdGggZmlsbD0iIzRBOTE5QiIgZD0iTTg1Ni4zMiA0MjguMDY0Yy05NC44MTYgMC0xNDQuOTI4IDkwLjY1Ni0xODUuMTg0IDE2My41Mi0yNS44MjQgNDYuNjg4LTUyLjUxMiA5NC45NDQtNzguNzIgOTcuNTY4LTI4LjU0NC01LjY2NC00OC4wOTYtMjMuMi03MC42NTYtNDMuMzYtMzEuNzQ0LTI4LjQ0OC02Ny40ODgtNjAuMjg4LTEzMC40NjQtNTcuOTUyLTc2LjggMy4zMjgtMTQ2LjI0IDU3LjY5Ni0yMDYuNCAxNjEuNjk2YTMyIDMyIDAgMCAwIDU1LjM5MiAzMi4wNjRjNDguNDgtODMuODQgMTAwLjIyNC0xMjcuNDg4IDE1My43MjgtMTI5LjgyNCAzNi45MjgtMS40NCA1Ni45NiAxNi41NzYgODQuOTkyIDQxLjY2NCAyNi44OCAyNC4wOTYgNTcuMzQ0IDUxLjM2IDEwNS44ODggNTkuMzkyYTMxLjU4NCAzMS41ODQgMCAwIDAgNS4yMTYgMC40NDhjNjQuNzA0IDAgMTAxLjQ0LTY2LjQ2NCAxMzYuOTYtMTMwLjcyIDI4LjM1Mi01MS4zMjggNTcuNTA0LTEwNCA5Ny4xODQtMTIzLjA3MnYzNjkuOTg0SDEyOFYyMzEuNjhoNDg4LjE2YTMyIDMyIDAgMSAwIDAtNjRIOTZhMzIgMzIgMCAwIDAtMzIgMzJ2NzAxLjgyNGEzMiAzMiAwIDAgMCAzMiAzMmg3NjAuMzJhMzIgMzIgMCAwIDAgMzItMzJWNDYwLjA2NGEzMiAzMiAwIDAgMC0zMi0zMnoiLz48cGF0aCBmaWxsPSIjNEE5MTlCIiBkPSJNMTgwLjk2IDQyNC4zMmMwIDU3Ljk1MiA0Ny4xNjggMTA1LjEyIDEwNS4xMiAxMDUuMTJzMTA1LjEyLTQ3LjE2OCAxMDUuMTItMTA1LjEyLTQ3LjE2OC0xMDUuMDg4LTEwNS4xMi0xMDUuMDg4LTEwNS4xMiA0Ny4xMzYtMTA1LjEyIDEwNS4wODh6IG0xNDYuMjQgMGE0MS4xNTIgNDEuMTUyIDAgMCAxLTgyLjI0IDAgNDEuMTUyIDQxLjE1MiAwIDAgMSA4Mi4yNCAwek05NjAgMTc0LjY1NmgtNjEuMzc2VjExMy4yOGEzMiAzMiAwIDEgMC02NCAwdjYxLjM0NEg3NTIuNjRhMzIgMzIgMCAxIDAgMCA2NGg4MS45ODR2ODEuOTg0YTMyIDMyIDAgMSAwIDY0IDBWMjM4LjY1Nkg5NjBhMzIgMzIgMCAxIDAgMC02NHoiLz48L3N2Zz4=;" parent="1" vertex="1">
          <mxGeometry x="96" y="224" width="28" height="28" as="geometry" />
        </mxCell>
      </root>
    </mxGraphModel>
  </diagram>
</mxfile>
